<svg width="118" height="22" viewBox="0 0 118 22" fill="none" xmlns="http://www.w3.org/2000/svg">
<path d="M11.288 10.6803C12.4998 11.0454 13.4283 11.6844 14.0733 12.5973C14.7379 13.4899 15.0702 14.5853 15.0702 15.8836C15.0702 17.121 14.7574 18.1962 14.1319 19.109C13.526 20.0219 12.6464 20.7319 11.4932 21.2391C10.34 21.7259 9.00105 21.9693 7.47644 21.9693C6.20594 21.9693 4.9843 21.7766 3.81152 21.3912C2.65829 21.0058 1.66143 20.4682 0.820943 19.7785C0.527749 19.5553 0.31274 19.3119 0.175916 19.0482C0.0586388 18.7845 0 18.4802 0 18.1353C0 17.6079 0.146597 17.1616 0.439791 16.7965C0.732985 16.411 1.08482 16.2183 1.49529 16.2183C1.72984 16.2183 1.94485 16.2589 2.14032 16.34C2.33578 16.4009 2.58011 16.5226 2.8733 16.7052C3.73334 17.2123 4.47609 17.5977 5.10157 17.8615C5.72705 18.1252 6.46004 18.257 7.30053 18.257C8.49285 18.257 9.36266 18.0339 9.90995 17.5876C10.4572 17.121 10.7309 16.4009 10.7309 15.4272C10.7309 14.4737 10.4475 13.784 9.88063 13.358C9.31379 12.932 8.40489 12.719 7.15393 12.719H5.42409C4.91588 12.719 4.51519 12.5364 4.22199 12.1713C3.9288 11.8061 3.7822 11.37 3.7822 10.8628C3.7822 10.376 3.9288 9.94998 4.22199 9.58483C4.51519 9.21969 4.91588 9.03712 5.42409 9.03712H6.6555C7.84782 9.03712 8.72741 8.82411 9.29425 8.39811C9.88063 7.97211 10.1738 7.31282 10.1738 6.42024C10.1738 5.56824 9.9295 4.90895 9.44084 4.44237C8.95219 3.95551 8.26807 3.71208 7.38849 3.71208C6.66527 3.71208 5.99093 3.84394 5.36545 4.10765C4.73997 4.37137 4.01676 4.7568 3.19581 5.26395C2.90262 5.44652 2.65829 5.57838 2.46283 5.65952C2.26737 5.72038 2.05236 5.75081 1.8178 5.75081C1.40733 5.75081 1.0555 5.56824 0.762304 5.20309C0.46911 4.81766 0.322513 4.36123 0.322513 3.8338C0.322513 3.46865 0.381152 3.16436 0.49843 2.92093C0.635253 2.65722 0.850262 2.41379 1.14346 2.19064C1.9644 1.50092 2.94171 0.963348 4.0754 0.577918C5.22862 0.192487 6.4014 -0.000228882 7.59372 -0.000228882C8.98151 -0.000228882 10.2031 0.243201 11.2586 0.730061C12.3141 1.19664 13.1253 1.86607 13.6922 2.73836C14.259 3.61065 14.5424 4.62494 14.5424 5.78124C14.5424 6.93753 14.2492 7.95182 13.6628 8.82411C13.096 9.67612 12.3044 10.2948 11.288 10.6803Z" fill="url(#paint0_linear)"/>
<path d="M25.4378 21.9998C22.9359 21.9998 21.0203 21.0565 19.6912 19.1699C18.3816 17.2833 17.7268 14.5549 17.7268 10.9846C17.7268 7.43453 18.3816 4.71623 19.6912 2.82965C21.0203 0.943063 22.9359 -0.000228882 25.4378 -0.000228882C27.9397 -0.000228882 29.8455 0.943063 31.1551 2.82965C32.4842 4.71623 33.1488 7.43453 33.1488 10.9846C33.1488 14.5549 32.4842 17.2833 31.1551 19.1699C29.8455 21.0565 27.9397 21.9998 25.4378 21.9998ZM25.4378 18.3787C26.5715 18.3787 27.3924 17.7905 27.9006 16.6139C28.4284 15.4373 28.6922 13.5609 28.6922 10.9846C28.6922 8.38797 28.4284 6.51153 27.9006 5.35523C27.3924 4.19894 26.5715 3.62079 25.4378 3.62079C24.3041 3.62079 23.4734 4.20908 22.9456 5.38566C22.4374 6.54196 22.1833 8.40825 22.1833 10.9846C22.1833 13.5609 22.4374 15.4373 22.9456 16.6139C23.4734 17.7905 24.3041 18.3787 25.4378 18.3787Z" fill="url(#paint1_linear)"/>
<path d="M43.018 21.9998C40.516 21.9998 38.6005 21.0565 37.2714 19.1699C35.9618 17.2833 35.307 14.5549 35.307 10.9846C35.307 7.43453 35.9618 4.71623 37.2714 2.82965C38.6005 0.943063 40.516 -0.000228882 43.018 -0.000228882C45.5199 -0.000228882 47.4256 0.943063 48.7352 2.82965C50.0644 4.71623 50.729 7.43453 50.729 10.9846C50.729 14.5549 50.0644 17.2833 48.7352 19.1699C47.4256 21.0565 45.5199 21.9998 43.018 21.9998ZM43.018 18.3787C44.1516 18.3787 44.9726 17.7905 45.4808 16.6139C46.0085 15.4373 46.2724 13.5609 46.2724 10.9846C46.2724 8.38797 46.0085 6.51153 45.4808 5.35523C44.9726 4.19894 44.1516 3.62079 43.018 3.62079C41.8843 3.62079 41.0536 4.20908 40.5258 5.38566C40.0176 6.54196 39.7635 8.40825 39.7635 10.9846C39.7635 13.5609 40.0176 15.4373 40.5258 16.6139C41.0536 17.7905 41.8843 18.3787 43.018 18.3787Z" fill="url(#paint2_linear)"/>
<path d="M69.3733 6.75496C69.3733 10.9136 68.9238 14.0984 68.0247 16.3096C67.1451 18.5207 65.8061 20.174 64.0079 21.2695C63.4997 21.5941 63.0013 21.7563 62.5126 21.7563C61.9653 21.7563 61.5157 21.5636 61.1639 21.1782C60.8316 20.7928 60.6655 20.3363 60.6655 19.8089C60.6655 19.3829 60.7828 18.9772 61.0173 18.5917C61.2519 18.186 61.6135 17.831 62.1021 17.5267C63.0208 16.9587 63.7245 15.9039 64.2131 14.3622C64.7213 12.8204 64.9754 10.5484 64.9754 7.54611V2.49493C64.9754 1.78493 65.1513 1.23721 65.5032 0.851776C65.8746 0.466346 66.4023 0.27363 67.0864 0.27363H77.876C78.5601 0.27363 79.0781 0.466346 79.4299 0.851776C79.8013 1.23721 79.987 1.78493 79.987 2.49493V19.5655C79.987 20.2755 79.7817 20.8435 79.3713 21.2695C78.9608 21.6955 78.4233 21.9085 77.7587 21.9085C77.0746 21.9085 76.5273 21.6955 76.1168 21.2695C75.7063 20.8435 75.5011 20.2755 75.5011 19.5655V4.01637H69.3733V6.75496Z" fill="url(#paint3_linear)"/>
<path d="M86.2306 21.7259C85.5465 21.7259 85.0187 21.5332 84.6474 21.1478C84.276 20.7623 84.0903 20.2146 84.0903 19.5046V2.49493C84.0903 1.78493 84.276 1.23721 84.6474 0.851776C85.0187 0.466346 85.5465 0.27363 86.2306 0.27363H96.6097C98.0561 0.27363 98.7793 0.882205 98.7793 2.09936C98.7793 3.33679 98.0561 3.95551 96.6097 3.95551H88.5468V8.97626H96.0233C97.4697 8.97626 98.1929 9.59498 98.1929 10.8324C98.1929 12.0496 97.4697 12.6581 96.0233 12.6581H88.5468V18.044H96.6097C98.0561 18.044 98.7793 18.6627 98.7793 19.9002C98.7793 21.1173 98.0561 21.7259 96.6097 21.7259H86.2306Z" fill="url(#paint4_linear)"/>
<path d="M108.794 21.8781C108.11 21.8781 107.553 21.6651 107.123 21.2391C106.712 20.813 106.507 20.245 106.507 19.535V4.13808H101.757C100.311 4.13808 99.5874 3.48894 99.5874 2.19064C99.5874 0.912634 100.311 0.27363 101.757 0.27363H115.83C117.277 0.27363 118 0.912634 118 2.19064C118 3.48894 117.277 4.13808 115.83 4.13808H111.081V19.535C111.081 20.245 110.875 20.813 110.465 21.2391C110.054 21.6651 109.497 21.8781 108.794 21.8781Z" fill="url(#paint5_linear)"/>
<defs>
<linearGradient id="paint0_linear" x1="59" y1="11.4398" x2="59" y2="21.9998" gradientUnits="userSpaceOnUse">
<stop stop-color="#E5CC6C"/>
<stop offset="1" stop-color="#998434"/>
</linearGradient>
<linearGradient id="paint1_linear" x1="59" y1="11.4398" x2="59" y2="21.9998" gradientUnits="userSpaceOnUse">
<stop stop-color="#E5CC6C"/>
<stop offset="1" stop-color="#998434"/>
</linearGradient>
<linearGradient id="paint2_linear" x1="59" y1="11.4398" x2="59" y2="21.9998" gradientUnits="userSpaceOnUse">
<stop stop-color="#E5CC6C"/>
<stop offset="1" stop-color="#998434"/>
</linearGradient>
<linearGradient id="paint3_linear" x1="59" y1="11.4398" x2="59" y2="21.9998" gradientUnits="userSpaceOnUse">
<stop stop-color="#E5CC6C"/>
<stop offset="1" stop-color="#998434"/>
</linearGradient>
<linearGradient id="paint4_linear" x1="59" y1="11.4398" x2="59" y2="21.9998" gradientUnits="userSpaceOnUse">
<stop stop-color="#E5CC6C"/>
<stop offset="1" stop-color="#998434"/>
</linearGradient>
<linearGradient id="paint5_linear" x1="59" y1="11.4398" x2="59" y2="21.9998" gradientUnits="userSpaceOnUse">
<stop stop-color="#E5CC6C"/>
<stop offset="1" stop-color="#998434"/>
</linearGradient>
</defs>
</svg>
