<svg width="19" height="14" viewBox="0 0 19 14" fill="none" xmlns="http://www.w3.org/2000/svg">
<path d="M17.7109 3.82407C17.5937 3.68333 17.447 3.57013 17.2811 3.49252C17.1152 3.41491 16.9343 3.37478 16.7512 3.375H3.64807L3.26523 1.27577C3.21281 0.987848 3.06099 0.727456 2.83625 0.539999C2.61151 0.352541 2.3281 0.24991 2.03545 0.25H0.625C0.45924 0.25 0.300269 0.315848 0.183058 0.433058C0.065848 0.550269 0 0.70924 0 0.875C0 1.04076 0.065848 1.19973 0.183058 1.31694C0.300269 1.43415 0.45924 1.5 0.625 1.5H2.03552L2.50344 4.06618C2.50676 4.09744 2.51242 4.1284 2.52037 4.15881L4.0139 12.3492C4.06631 12.6371 4.21811 12.8975 4.44284 13.085C4.66756 13.2725 4.95096 13.3751 5.24361 13.375H15.3883C15.6811 13.3751 15.9647 13.2724 16.1894 13.0848C16.4142 12.8972 16.566 12.6366 16.6182 12.3485L17.981 4.8485C18.014 4.66839 18.0069 4.48322 17.9602 4.30616C17.9135 4.1291 17.8284 3.9645 17.7109 3.82407Z" fill="#181A34"/>
</svg>
